PathFileType	4	(X/Y/Z)	C:\Users\dbl\Desktop\LZH\BX\Trimmed_bx_n_10_501.trc
DataRate	CameraRate	NumFrames	NumMarkers	Units	OrigDataRate	OrigDataStartFrame	OrigNumFrames
50.00	50.00	      4	43	mm	50.00	365	      1457
Frame#	Time	Top.Head			R.Acromium			L.Acromium			Sternum			R.ASIS			L.ASIS			V.Sacral			R.Thigh.Upper			R.Thigh.Front			R.Thigh.Rear			R.Knee.Lat			R.Knee.Med			R.Shank.Upper			R.Shank.Front			R.Shank.Rear			R.Ankle.Lat			R.Midfoot.Lat			R.Toe.Lat			R.Toe.Tip			R.Toe.Med			R.Ankle.Med			R.Midfoot.Sup			R.Heel			L.Thigh.Upper			L.Thigh.Front			L.Thigh.Rear			L.Knee.Lat			L.Knee.Med			L.Shank.Upper			L.Shank.Front			L.Shank.Rear			L.Ankle.Lat			L.Midfoot.Lat			L.Toe.Lat			L.Toe.Tip			L.Toe.Med			L.Ankle.Med			L.Midfoot.Sup			L.Heel			origin1 front left			origin2 front right			origin 3 back right			origin 4 back leftt			
		X1	Y1	Z1	X2	Y2	Z2	X3	Y3	Z3	X4	Y4	Z4	X5	Y5	Z5	X6	Y6	Z6	X7	Y7	Z7	X8	Y8	Z8	X9	Y9	Z9	X10	Y10	Z10	X11	Y11	Z11	X12	Y12	Z12	X13	Y13	Z13	X14	Y14	Z14	X15	Y15	Z15	X16	Y16	Z16	X17	Y17	Z17	X18	Y18	Z18	X19	Y19	Z19	X20	Y20	Z20	X21	Y21	Z21	X22	Y22	Z22	X23	Y23	Z23	X24	Y24	Z24	X25	Y25	Z25	X26	Y26	Z26	X27	Y27	Z27	X28	Y28	Z28	X29	Y29	Z29	X30	Y30	Z30	X31	Y31	Z31	X32	Y32	Z32	X33	Y33	Z33	X34	Y34	Z34	X35	Y35	Z35	X36	Y36	Z36	X37	Y37	Z37	X38	Y38	Z38	X39	Y39	Z39	X40	Y40	Z40	X41	Y41	Z41	X42	Y42	Z42	X43	Y43	Z43	

365	7.280	-88.10767	247.53427	1382.41504	-278.14185	86.18023	1189.54663	-283.47076	411.59329	1183.32239	-450.20270	239.56180	1099.09155	-680.54932	133.19415	985.81573	-656.64258	357.33698	982.72192	-841.26654	257.95221	1092.96252	-756.87738	84.98395	822.98132	-665.20099	147.97627	806.73126	-756.94965	99.79161	708.03497	-744.21576	122.72621	595.08301	-717.65308	231.59273	557.20081	-760.57965	121.60708	528.89539	-681.81775	173.00928	528.92780	-757.88464	114.84149	476.38736	-689.33063	147.34818	211.46790	-607.34570	91.28736	165.74796	-561.16766	69.96933	162.52957	-484.26724	112.54036	157.62950	-529.27606	164.55751	163.51694	-643.86536	225.11713	226.44693	-592.99408	200.37691	174.79651	-720.23358	214.70358	168.93590	-744.48993	446.13034	848.46313	-660.15125	387.46530	812.73932	-749.90393	436.76230	732.57098	-739.07141	408.76794	597.63898	-725.02002	295.51428	566.45233	-745.95483	410.69525	552.06989	-685.96008	352.80423	537.70831	-787.30396	414.31345	480.34262	-683.90613	404.74188	213.98515	-580.46893	450.71332	162.87500	-542.43164	461.19681	156.81699	-482.52069	408.28314	165.25372	-525.97388	370.53040	176.85007	-647.70544	312.53476	214.88474	-594.35284	332.44211	174.44037	-731.33276	332.48798	162.47430	-444.03275	448.47894	146.79207	-450.57516	75.01844	143.62471	-806.23108	82.97929	141.86848	-799.34796	456.94281	145.58987	
366	7.300	-91.14899	246.88475	1387.46460	-279.83105	85.82690	1192.24622	-285.40045	411.48953	1186.94482	-450.44577	239.68193	1101.68787	-681.02448	133.02850	985.90222	-656.99884	357.07700	983.20209	-842.02496	257.56253	1092.63110	-757.08911	84.79565	822.90686	-665.42810	147.69618	806.68298	-757.16241	99.59832	708.00269	-744.46027	122.54815	594.97479	-717.83997	231.42239	557.17627	-760.80176	121.47755	528.77936	-682.00690	172.81126	528.93512	-758.00635	114.72078	476.36713	-689.36163	147.30103	211.45451	-607.36719	91.25970	165.74911	-561.18048	69.92342	162.51241	-484.24185	112.51852	157.62604	-529.26410	164.57050	163.53316	-643.92426	225.04506	226.45601	-593.00665	200.38335	174.78427	-720.25757	214.68822	168.92192	-744.77374	445.79993	848.51074	-660.42371	387.26541	812.82520	-750.17957	436.50702	732.60864	-739.16577	408.65799	597.68280	-725.08862	295.43924	566.43219	-746.08453	410.55396	552.12341	-686.09595	352.71088	537.74609	-787.42230	414.17767	480.26071	-683.96289	404.71625	213.96783	-580.49463	450.71332	162.85347	-542.44043	461.23984	156.81218	-482.53070	408.29355	165.27065	-525.98486	370.54858	176.85805	-647.71375	312.53345	214.89786	-594.39417	332.44586	174.45720	-731.35437	332.50488	162.47896	-444.02643	448.48752	146.79063	-450.58707	75.01651	143.63298	-806.25598	82.98565	141.82213	-799.36041	456.89804	145.53108	
367	7.320	-94.34039	246.15948	1392.83093	-281.62231	85.49247	1195.22070	-287.41211	411.40533	1190.89111	-450.73322	239.80655	1104.39636	-681.39642	132.83405	986.08862	-657.32935	356.83612	983.73120	-842.76788	257.14810	1092.30505	-757.25610	84.60497	822.84436	-665.62683	147.41566	806.65680	-757.37305	99.39370	707.97205	-744.67175	122.38747	594.90460	-718.05951	231.21207	557.17029	-760.99640	121.36221	528.64618	-682.20135	172.61850	528.94379	-758.11792	114.61221	476.32562	-689.40045	147.23610	211.43880	-607.39374	91.23756	165.74132	-561.19031	69.86879	162.49054	-484.22418	112.49588	157.63052	-529.25238	164.57852	163.55249	-643.97003	224.97095	226.48068	-593.02435	200.40295	174.76385	-720.27985	214.66919	168.90939	-745.02087	445.47452	848.56073	-660.65771	387.05005	812.92419	-750.42371	436.27228	732.64258	-739.25427	408.53952	597.73328	-725.15521	295.38492	566.38892	-746.19604	410.39545	552.15558	-686.22571	352.65271	537.74292	-787.52417	414.04504	480.20358	-684.02515	404.68903	213.94415	-580.52032	450.72226	162.84152	-542.45160	461.26999	156.80830	-482.53973	408.28928	165.27814	-525.98749	370.56531	176.87158	-647.71783	312.52173	214.91284	-594.42365	332.44025	174.46524	-731.37225	332.51599	162.48985	-444.02261	448.49017	146.80116	-450.59766	75.01484	143.64288	-806.28552	82.96511	141.81183	-799.39844	456.82153	145.45064	
368	7.340	-97.69061	245.36707	1398.53955	-283.53607	85.15520	1198.52173	-289.49908	411.33099	1195.17700	-451.06573	239.93573	1107.21655	-681.61975	132.58887	986.42560	-657.62048	356.60733	984.31793	-843.48767	256.70676	1091.98083	-757.36005	84.40166	822.79803	-665.77057	147.13237	806.65717	-757.55225	99.18182	707.94806	-744.83643	122.23860	594.87000	-718.27515	230.97539	557.18951	-761.14557	121.24307	528.51379	-682.38409	172.43634	528.95319	-758.20789	114.50201	476.26364	-689.44653	147.16028	211.41862	-607.42499	91.22115	165.72357	-561.19940	69.80275	162.46210	-484.21741	112.46972	157.63966	-529.24512	164.57988	163.57040	-644.00256	224.89716	226.51706	-593.04749	200.43480	174.73573	-720.29620	214.64735	168.89963	-745.22229	445.14819	848.61139	-660.82782	386.82202	813.03308	-750.60876	436.05411	732.67297	-739.33301	408.40649	597.79065	-725.20502	295.33508	566.33704	-746.27502	410.23428	552.16565	-686.33649	352.62714	537.69489	-787.59863	413.92938	480.18015	-684.08881	404.66330	213.91498	-580.54523	450.73853	162.84024	-542.46527	461.28854	156.80281	-482.54749	408.26929	165.27740	-525.98395	370.57950	176.88406	-647.71869	312.50723	214.92419	-594.44080	332.42676	174.46562	-731.38483	332.52063	162.49702	-444.02112	448.48816	146.81917	-450.60550	75.01275	143.65094	-806.32074	82.92969	141.82892	-799.45642	456.73471	145.36980	
